<?xml version="1.0" encoding="UTF-8"?>
<!DOCTYPE svg PUBLIC "-//W3C//DTD SVG 1.1//EN" "http://www.w3.org/Graphics/SVG/1.1/DTD/svg11.dtd">
<!-- Creator: CorelDRAW -->
<svg xmlns="http://www.w3.org/2000/svg" xml:space="preserve" width="227.823mm" height="56.6591mm" version="1.1" shape-rendering="geometricPrecision" text-rendering="geometricPrecision" image-rendering="optimizeQuality" fill-rule="evenodd" clip-rule="evenodd"
viewBox="0 0 39550.37 9836.08"
 xmlns:xlink="http://www.w3.org/1999/xlink"
 xmlns:xodm="http://www.corel.com/coreldraw/odm/2003">
 <g id="Layer_x0020_1">
  <metadata id="CorelCorpID_0Corel-Layer"/>
  <path fill="#195786" d="M3087.13 6384.27l-501.52 -1097.91 22.29 -45.17 891.58 -177.8 635.26 -2221.24c133.74,262.48 111.45,273.79 33.44,530.61 -100.31,316.11 -445.79,1439.43 -456.94,1625.7l111.45 -14.1 479.23 -1597.49 423.5 1380.16 1337.39 -344.34 -1036.49 -3014.32 -1660.58 0 -2474.15 7058.83 1604.86 2.83 590.68 -2085.76z"/>
  <polygon fill="#195786" points="5093.2,5977.85 5817.62,8470.03 7478.2,8461.56 6352.57,5244.02 "/>
  <path fill="#27536C" d="M3287.74 6754l-89.16 -155.23c-89.16,321.75 -189.47,649.16 -278.63,965.27 -55.73,160.88 -100.31,316.11 -144.87,476.99 -22.29,76.19 -55.73,152.4 -66.87,222.97 -55.73,172.16 -33.44,160.88 -11.15,206.03 167.16,-59.27 156.02,-208.86 200.6,-389.49l390.08 -1326.54z"/>
  <path fill="#185888" fill-rule="nonzero" d="M10640.46 620.09l849.12 0 1105.18 3010.05 -705.34 0 -202.18 -557.09 -1244.44 0 -202.18 557.09 -705.34 0 1105.18 -3010.05zm862.59 1918.34l-435.79 -1208.51 -440.27 1208.51 876.06 0z"/>
  <path id="_1" fill="#185888" fill-rule="nonzero" d="M12644.18 2125.12c0,-215.65 40.43,-417.82 116.8,-606.51 76.38,-188.69 184.19,-354.91 323.47,-494.19 134.78,-139.26 296.51,-247.09 485.2,-327.95 188.69,-80.86 395.36,-121.31 615.49,-121.31 197.68,0 381.87,26.96 552.59,85.36 166.22,58.42 318.97,139.28 449.26,242.61 130.29,107.82 233.61,238.11 318.97,386.37 85.36,152.75 139.28,323.47 166.22,507.66l-750.25 0c-49.42,-166.22 -143.78,-301.01 -278.54,-399.84 -139.28,-94.35 -292.03,-143.76 -462.75,-143.76 -112.3,0 -220.13,22.46 -318.97,67.37 -98.83,44.93 -184.19,107.82 -256.08,184.21 -71.87,76.37 -130.27,170.72 -170.72,274.05 -40.43,107.82 -62.9,224.62 -62.9,345.93 0,121.3 22.46,238.09 62.9,341.44 40.45,107.82 98.85,202.16 170.72,278.54 71.89,76.37 157.25,139.26 256.08,184.19 98.85,44.93 206.67,67.39 318.97,67.39 170.72,0 323.47,-49.42 462.75,-148.26 134.77,-94.35 229.12,-229.14 278.54,-395.36l750.25 0c-26.94,184.21 -80.86,354.93 -166.22,503.18 -85.36,152.73 -188.69,283.02 -318.97,386.37 -130.29,107.81 -283.04,188.69 -449.26,247.09 -170.72,58.4 -354.91,85.36 -552.59,85.36 -220.13,0 -426.8,-40.43 -615.49,-121.3 -188.69,-80.88 -350.41,-193.18 -485.2,-332.46 -139.28,-139.26 -247.09,-301.01 -323.47,-489.69 -76.37,-188.69 -116.8,-390.85 -116.8,-606.49z"/>
  <path id="_2" fill="#185888" fill-rule="nonzero" d="M15964.22 2125.12c0,-215.65 40.43,-417.82 116.8,-606.51 76.38,-188.69 184.19,-354.91 323.47,-494.19 134.78,-139.26 296.51,-247.09 485.2,-327.95 188.69,-80.86 395.36,-121.31 615.49,-121.31 197.68,0 381.87,26.96 552.59,85.36 166.22,58.42 318.97,139.28 449.26,242.61 130.29,107.82 233.61,238.11 318.97,386.37 85.36,152.75 139.28,323.47 166.22,507.66l-750.25 0c-49.42,-166.22 -143.78,-301.01 -278.54,-399.84 -139.28,-94.35 -292.03,-143.76 -462.75,-143.76 -112.3,0 -220.13,22.46 -318.97,67.37 -98.83,44.93 -184.19,107.82 -256.08,184.21 -71.87,76.37 -130.27,170.72 -170.72,274.05 -40.43,107.82 -62.9,224.62 -62.9,345.93 0,121.3 22.46,238.09 62.9,341.44 40.45,107.82 98.85,202.16 170.72,278.54 71.89,76.37 157.25,139.26 256.08,184.19 98.85,44.93 206.67,67.39 318.97,67.39 170.72,0 323.47,-49.42 462.75,-148.26 134.77,-94.35 229.12,-229.14 278.54,-395.36l750.25 0c-26.94,184.21 -80.86,354.93 -166.22,503.18 -85.36,152.73 -188.69,283.02 -318.97,386.37 -130.29,107.81 -283.04,188.69 -449.26,247.09 -170.72,58.4 -354.91,85.36 -552.59,85.36 -220.13,0 -426.8,-40.43 -615.49,-121.3 -188.69,-80.88 -350.41,-193.18 -485.2,-332.46 -139.28,-139.26 -247.09,-301.01 -323.47,-489.69 -76.37,-188.69 -116.8,-390.85 -116.8,-606.49z"/>
  <path id="_3" fill="#185888" fill-rule="nonzero" d="M19284.25 2125.12c0,-220.14 40.43,-426.8 121.3,-615.49 76.37,-188.7 188.69,-350.43 327.97,-489.69 139.26,-139.28 300.99,-247.1 494.17,-327.97 193.18,-76.37 399.86,-116.82 619.98,-116.82 224.64,0 431.29,40.45 624.48,116.82 188.69,76.37 354.91,184.19 494.19,323.47 139.26,139.26 247.09,305.49 327.95,494.19 76.38,188.69 116.82,395.34 116.82,615.49 0,220.13 -40.43,426.8 -116.82,615.49 -80.86,188.69 -188.69,350.41 -327.95,489.69 -139.28,139.26 -305.5,251.58 -494.19,327.95 -193.18,76.38 -399.84,116.82 -624.48,116.82 -220.13,0 -426.8,-40.43 -619.98,-116.82 -193.18,-76.37 -354.91,-188.69 -494.17,-327.95 -139.28,-139.28 -251.6,-301.01 -327.97,-489.69 -80.86,-188.69 -121.3,-395.36 -121.3,-615.49zm727.79 -4.5c0,121.3 22.46,238.11 62.9,341.44 40.45,107.82 98.85,197.68 175.22,274.05 76.38,76.37 161.74,139.26 265.07,179.71 103.33,44.91 211.15,67.37 332.45,67.37 121.3,0 229.12,-22.46 332.46,-67.37 103.33,-40.45 188.69,-103.34 265.05,-179.71 76.38,-76.37 134.78,-166.22 175.22,-274.05 40.43,-103.33 62.9,-220.14 62.9,-341.44 0,-121.3 -22.46,-238.11 -62.9,-341.44 -40.43,-103.33 -98.83,-193.18 -175.22,-269.55 -76.37,-76.38 -161.73,-134.78 -265.05,-179.71 -103.34,-40.43 -211.17,-62.9 -332.46,-62.9 -121.3,0 -229.12,22.46 -332.45,62.9 -103.33,44.93 -188.69,103.33 -265.07,179.71 -76.37,76.37 -134.77,166.22 -175.22,269.55 -40.43,103.33 -62.9,220.14 -62.9,341.44z"/>
  <path id="_4" fill="#185888" fill-rule="nonzero" d="M24167.7 3675.07c-417.81,0 -741.28,-107.82 -970.41,-318.97 -229.12,-211.15 -345.92,-516.65 -345.92,-916.49l0 -1819.51 709.82 0 0 1774.59c0,202.18 49.42,354.91 152.75,467.23 103.33,112.32 251.58,170.72 453.76,170.72 197.68,0 345.93,-58.4 449.26,-170.72 98.83,-112.32 148.26,-265.05 148.26,-467.23l0 -1774.59 709.82 0 0 1819.51c0,399.84 -112.3,705.34 -336.94,916.49 -229.12,211.15 -552.59,318.97 -970.4,318.97z"/>
  <polygon id="_5" fill="#185888" fill-rule="nonzero" points="26068.06,620.09 26944.12,620.09 28071.76,2619.29 28071.76,620.09 28768.11,620.09 28768.11,3630.14 27896.55,3630.14 26764.43,1626.43 26764.43,3630.14 26068.06,3630.14 "/>
  <polygon id="_6" fill="#185888" fill-rule="nonzero" points="30066.49,1222.1 29114.06,1222.1 29114.06,620.09 31724.26,620.09 31724.26,1222.1 30771.83,1222.1 30771.83,3630.14 30066.49,3630.14 "/>
  <polygon id="_7" fill="#185888" fill-rule="nonzero" points="32070.18,620.09 32780.02,620.09 32780.02,3630.14 32070.18,3630.14 "/>
  <polygon id="_8" fill="#185888" fill-rule="nonzero" points="33408.97,620.09 34285.03,620.09 35412.68,2619.29 35412.68,620.09 36109.03,620.09 36109.03,3630.14 35237.46,3630.14 34105.34,1626.43 34105.34,3630.14 33408.97,3630.14 "/>
  <path id="_9" fill="#185888" fill-rule="nonzero" d="M37986.96 3675.07c-206.67,0 -395.36,-35.94 -566.08,-112.32 -175.22,-71.87 -323.47,-175.22 -444.77,-309.98 -125.79,-134.78 -224.62,-296.51 -292.01,-485.2 -67.39,-184.21 -103.33,-390.86 -103.33,-619.98 0,-229.14 35.94,-444.77 107.82,-637.95 67.37,-193.18 170.72,-359.42 305.49,-498.69 130.29,-139.26 292.01,-247.09 480.72,-323.47 184.19,-76.37 395.34,-112.32 628.96,-112.32 193.18,0 368.4,22.46 530.13,71.89 161.74,49.42 305.5,116.82 431.29,202.18 121.3,85.36 224.62,193.18 309.98,318.97 80.88,125.79 134.78,265.05 161.74,422.3l-835.63 0c-40.43,-112.32 -112.32,-206.67 -224.62,-274.05 -112.32,-67.39 -238.11,-98.85 -381.87,-98.85 -121.31,0 -229.14,22.46 -323.47,67.39 -98.85,44.93 -179.71,107.82 -247.1,188.69 -67.39,80.86 -121.3,175.22 -157.23,283.04 -40.43,107.82 -58.42,224.62 -58.42,350.43 0,287.52 80.88,512.14 238.11,678.38 157.25,166.22 368.4,247.09 642.45,247.09 152.75,0 287.54,-26.96 399.84,-85.36 112.32,-53.9 197.68,-134.78 256.08,-238.11l0 -256.08 -646.92 0 0 -498.67 1352.27 0 0 1675.74 -705.34 0 0 -283.04c-107.82,103.33 -233.61,184.21 -372.88,242.61 -143.76,58.4 -305.5,85.36 -485.2,85.36z"/>
  <path id="_10" fill="#185888" fill-rule="nonzero" d="M9755.43 7080.46c0,-301.01 103.33,-530.14 309.98,-691.87 202.18,-161.73 494.19,-242.61 876.06,-242.61 390.86,0 687.37,85.36 889.53,260.58 202.18,175.22 305.5,417.82 310,727.81l-700.84 0c-4.5,-134.78 -49.42,-238.11 -134.78,-309.98 -89.86,-67.39 -220.13,-103.34 -386.37,-103.34 -148.26,0 -260.56,26.96 -341.44,85.36 -80.86,58.42 -121.3,134.78 -121.3,233.61 0,62.91 17.97,116.82 49.42,157.25 31.44,44.93 76.37,80.86 134.77,112.32 53.92,31.44 116.82,53.9 193.18,71.87 71.89,22.46 148.26,40.45 229.14,53.92 125.79,26.96 256.08,53.9 390.85,85.36 134.78,31.44 260.58,80.86 372.9,143.76 112.3,62.9 202.16,148.26 274.05,251.58 71.87,103.33 107.82,242.61 107.82,417.82 0,274.05 -98.85,494.19 -301.01,660.41 -202.18,166.22 -516.65,251.58 -934.46,251.58 -426.8,0 -750.27,-89.86 -961.42,-265.07 -215.65,-175.2 -323.47,-417.81 -323.47,-718.81l700.84 0c13.49,134.78 67.39,238.11 170.72,305.5 98.85,71.87 238.11,107.82 417.82,107.82 161.73,0 287.52,-26.96 377.37,-85.36 85.36,-58.42 130.29,-134.78 130.29,-233.61 0,-62.9 -17.97,-116.82 -49.42,-157.25 -35.94,-40.43 -85.36,-71.89 -143.76,-98.83 -58.4,-26.96 -130.29,-49.42 -206.65,-67.39 -80.88,-13.49 -166.24,-31.46 -251.6,-44.93 -121.3,-22.46 -247.09,-49.42 -372.88,-80.86 -130.29,-31.46 -247.1,-76.38 -350.43,-143.76 -103.33,-62.91 -188.69,-148.27 -256.08,-256.08 -67.39,-107.82 -98.83,-251.6 -98.83,-426.8z"/>
  <path id="_11" fill="#185888" fill-rule="nonzero" d="M14885.98 9573.84l-309.98 -395.34c-143.78,44.93 -296.51,67.39 -458.25,67.39 -220.13,0 -426.8,-40.43 -619.98,-116.82 -193.18,-76.37 -354.91,-188.69 -494.17,-327.95 -139.28,-139.28 -251.6,-301.01 -327.97,-489.69 -80.86,-188.69 -121.3,-395.36 -121.3,-615.49 0,-220.14 40.43,-426.8 121.3,-615.49 76.37,-188.7 188.69,-350.43 327.97,-489.69 139.26,-139.28 300.99,-247.1 494.17,-327.97 193.18,-76.37 399.86,-116.82 619.98,-116.82 224.64,0 431.29,40.45 624.48,116.82 188.69,76.37 354.91,184.19 494.19,323.47 139.26,139.26 247.09,305.49 327.95,494.19 76.38,188.69 116.82,395.34 116.82,615.49 0,242.59 -44.93,467.23 -139.28,669.39 -94.33,202.18 -229.12,377.39 -395.34,516.65l534.62 691.85 -795.2 0zm-1603.87 -1882.39c0,121.3 22.46,238.11 62.9,341.44 40.45,107.82 98.85,197.68 175.22,274.05 76.38,76.37 161.74,139.26 265.07,179.71 103.33,44.91 211.15,67.37 332.45,67.37 121.3,0 229.12,-22.46 332.46,-67.37 103.33,-40.45 188.69,-103.34 265.05,-179.71 76.38,-76.37 134.78,-166.22 175.22,-274.05 40.43,-103.33 62.9,-220.14 62.9,-341.44 0,-121.3 -22.46,-238.11 -62.9,-341.44 -40.43,-103.33 -98.83,-193.18 -175.22,-269.55 -76.37,-76.38 -161.73,-134.78 -265.05,-179.71 -103.34,-40.43 -211.17,-62.9 -332.46,-62.9 -121.3,0 -229.12,22.46 -332.45,62.9 -103.33,44.93 -188.69,103.33 -265.07,179.71 -76.37,76.37 -134.77,166.22 -175.22,269.55 -40.43,103.33 -62.9,220.14 -62.9,341.44z"/>
  <path id="_12" fill="#185888" fill-rule="nonzero" d="M17437.78 9245.89c-417.81,0 -741.28,-107.82 -970.41,-318.97 -229.12,-211.15 -345.92,-516.65 -345.92,-916.49l0 -1819.51 709.82 0 0 1774.59c0,202.18 49.42,354.91 152.75,467.23 103.33,112.32 251.58,170.72 453.76,170.72 197.68,0 345.93,-58.4 449.26,-170.72 98.83,-112.32 148.26,-265.05 148.26,-467.23l0 -1774.59 709.82 0 0 1819.51c0,399.84 -112.3,705.34 -336.94,916.49 -229.12,211.15 -552.59,318.97 -970.4,318.97z"/>
  <path id="_13" fill="#185888" fill-rule="nonzero" d="M20047.97 6190.91l849.12 0 1105.18 3010.05 -705.34 0 -202.18 -557.09 -1244.44 0 -202.18 557.09 -705.34 0 1105.18 -3010.05zm862.59 1918.34l-435.79 -1208.51 -440.27 1208.51 876.06 0z"/>
  <path id="_14" fill="#185888" fill-rule="nonzero" d="M23664.54 6190.91c390.85,0 691.85,85.36 903,251.6 211.15,166.22 314.48,404.33 314.48,714.32 0,215.65 -49.41,395.34 -152.73,543.6 -103.34,148.27 -256.08,256.08 -449.26,332.46l669.39 1168.07 -799.68 0 -584.05 -1064.75 -503.17 0 0 1064.75 -709.84 0 0 -3010.05 1311.85 0zm-4.5 1401.71c166.22,0 292.01,-35.95 377.37,-103.34 85.36,-67.37 130.29,-157.23 130.29,-278.54 0,-121.3 -44.93,-220.13 -130.29,-287.52 -85.36,-67.39 -211.15,-98.83 -377.37,-98.83l-597.52 0 0 768.24 597.52 0z"/>
  <polygon id="_15" fill="#185888" fill-rule="nonzero" points="25416.64,6190.91 27627,6190.91 27627,6819.88 26126.48,6819.88 26126.48,7430.87 27361.94,7430.87 27361.94,7969.99 26126.48,7969.99 26126.48,8572 27627,8572 27627,9200.96 25416.64,9200.96 "/>
  <rect fill="#185888" x="28819.84" y="6527.13" width="2330.13" height="2637.86"/>
  <path fill="#195786" d="M4707.3 2994.95c-192.59,514.35 -288.89,771.48 -288.89,771.48 4.32,14.24 -34.49,-112.27 -116.49,-379.54l-644.08 2163.59c-16.91,-5.66 -34.51,-10.42 -52.91,-14.08 -26.77,-10.05 -53.82,-18.89 -80.92,-26.3l703.41 -2350.75c10.38,-68.52 -5.03,-142.54 -46.18,-222.07 383.22,40.08 558.58,59.28 526.05,57.67zm-1252.98 3239.17l-663.68 2229.45 -149.85 -1.68 677.6 -2264.56c34.75,9.91 82.34,25.57 135.93,36.79z"/>
  <polygon fill="#3CB44D" points="4658.57,7352.34 3911.86,5904.45 7904.65,4342.01 4758.84,6175.41 4926.02,7304.37 "/>
  <polygon fill="#EB792E" points="3287.73,6754 3811.53,6629.84 3470.23,5736.63 7166.15,4143.29 2607.9,5241.21 "/>
  <path fill="#3CB44D" d="M-0 0l8470.1 0 0 9836.08 -8470.1 0 0 -9836.08zm541.13 539.73l7387.87 0 0 8756.66 -7387.87 0 0 -8756.66z"/>
 </g>
</svg>
